<?xml version="1.0" encoding="utf-8"?>
<!-- Svg Vector Icons : http://www.onlinewebfonts.com/icon -->
<!DOCTYPE svg PUBLIC "-//W3C//DTD SVG 1.1//EN" "http://www.w3.org/Graphics/SVG/1.1/DTD/svg11.dtd">
<svg version="1.1" xmlns="http://www.w3.org/2000/svg" xmlns:xlink="http://www.w3.org/1999/xlink" x="0px" y="0px" viewBox="0 0 256 256" enable-background="new 0 0 256 256" xml:space="preserve">
<metadata> Svg Vector Icons : http://www.onlinewebfonts.com/icon </metadata>
<g><g><g><path fill="#000000" d="M105.3,10.1C84.9,12,67,18.8,50.9,30.8c-5.6,4.2-15.9,14.4-20.1,20.1C20.2,65.1,13.5,81,10.8,98.4c-1.1,7.3-1.1,22.3,0,29.5c2.8,18.1,10.2,35.3,21.4,49.6c3.3,4.2,12.4,13.2,16.6,16.6c14.3,11.3,31.1,18.5,49.6,21.4c7.3,1.1,22.2,1.1,29.5,0c13.2-2.1,25.8-6.4,36.7-12.7c2.3-1.3,4.2-2.4,4.4-2.4c0.1,0,9.8,9.5,21.5,21.1c19.6,19.5,21.5,21.3,24.2,22.4c8.5,3.7,17.9,2.2,24.6-4.2c6.7-6.4,8.6-16.3,4.8-25.1c-1.2-2.7-2.9-4.6-22.4-24.2c-11.6-11.7-21.1-21.4-21.1-21.5c0-0.2,1.1-2.1,2.4-4.4c6.3-10.9,10.7-23.4,12.7-36.7c1.1-7.3,1.1-22.2,0-29.5c-2.9-18.5-10.2-35.3-21.4-49.6c-3.3-4.2-12.4-13.3-16.6-16.6C163.4,21.2,146,13.6,128.4,11C123.7,10.3,109.4,9.7,105.3,10.1z M122.8,17.6c33.4,3.6,61.9,23.5,76.5,53.3c23.3,47.7,3.7,105.1-43.9,128.4c-47.2,23.1-104,4.2-127.8-42.6c-22.3-43.7-8.1-96.8,33-123.9c9.4-6.2,21.5-11.3,32.7-13.7C102.1,17.4,114,16.7,122.8,17.6z M237.4,217.8c1.6,3.3,1.6,9.2,0,12.5c-1.5,2.9-4.3,5.7-7.2,7.2c-1.9,0.9-3,1.1-6.2,1.1c-6.5,0-5.8,0.5-28.8-22.3L175,196.1l2.6-2.1c4.2-3.2,11.6-10.6,15.1-15l3.2-4l20.1,20.2C231.8,210.9,236.5,216,237.4,217.8z"/><path fill="#000000" d="M103.7,25.1C82.4,27.3,61,38.4,46.7,54.7c-23.8,27.2-28.8,66.2-12.5,98.4c8.7,17.2,21.9,30.4,39.1,39.1c25.2,12.7,54.9,12.6,80-0.2c17-8.7,30-21.7,38.7-38.7c12.8-25.1,12.9-54.8,0.2-80C175.5,40.4,140.7,21.4,103.7,25.1z M127,33.1c23.2,4.2,43.4,18,55.7,38.1c12.1,19.8,15,44.3,7.9,66.5c-10.8,33.7-42.1,56.7-77.4,56.8c-22.1,0-42.7-8.7-58.3-24.7c-11.6-12-18.9-26.1-21.9-42.9c-1.2-6.4-1.2-20.7,0-27.2c3-16.7,10.3-30.9,21.9-42.9c13.3-13.7,29.9-21.9,49-24.2C109,31.8,121.9,32.2,127,33.1z"/><path fill="#000000" d="M110.7,51.5c-1.6,1.6-1.6,3.6,0,5.2c0.9,1,1.6,1.2,4,1.2c4.2,0,11,1.2,15.7,2.8c19.9,6.7,34.2,23.4,37.5,44c0.4,2.4,0.7,5.5,0.7,7.2c0,2.4,0.2,3.1,1.2,4c1.5,1.6,3.6,1.5,5.2,0c1.2-1.2,1.2-1.2,0.9-6.1c-2-32.1-26.9-57-59-59C111.9,50.3,111.9,50.3,110.7,51.5z"/></g></g></g>
</svg>